Coordinates
version=1
nRows=16
nColumns=40
inDegrees=yes

Units are S.I. units (second, meters, Newtons, ...)
Angles are in degrees.

endheader
time	pelvis_tilt	pelvis_list	pelvis_rotation	pelvis_tx	pelvis_ty	pelvis_tz	hip_flexion_r	hip_adduction_r	hip_rotation_r	knee_angle_r	knee_angle_r_beta	ankle_angle_r	subtalar_angle_r	mtp_angle_r	hip_flexion_l	hip_adduction_l	hip_rotation_l	knee_angle_l	knee_angle_l_beta	ankle_angle_l	subtalar_angle_l	mtp_angle_l	lumbar_extension	lumbar_bending	lumbar_rotation	arm_flex_r	arm_add_r	arm_rot_r	elbow_flex_r	pro_sup_r	wrist_flex_r	wrist_dev_r	arm_flex_l	arm_add_l	arm_rot_l	elbow_flex_l	pro_sup_l	wrist_flex_l	wrist_dev_l
     35.46650000	     -6.46132655	     -7.64131804	      2.39343604	      1.06062091	      0.91149548	      0.49147209	     -4.02632639	      7.69973919	    -17.27277812	      4.49681764	      4.49681764	     17.11786321	     12.02134432	     -1.63113690	     36.51373436	    -11.16158094	     -3.74448479	     21.32099174	     21.32099174	      2.52090605	    -13.45355093	     10.06938293	     -7.91992416	      7.42783499	      4.61847431	     49.36815063	    -16.01546658	     -5.06998669	     92.97028290	     44.72500965	      0.00000000	      0.00000000	    -19.21905222	     -6.26374198	      9.83359497	     23.65693217	     43.77843587	      0.00000000	      0.00000000
     35.47800000	     -6.48806955	     -7.54126042	      2.11673847	      1.06144127	      0.91037754	      0.48946943	     -4.42740320	      7.32000309	    -16.98800810	      5.08764935	      5.08764935	     17.61934731	     11.92415289	     -1.75436438	     36.15591438	    -10.95773025	     -3.77801393	     22.54394959	     22.54394959	      2.17372188	    -14.32019742	     10.02757163	     -7.76014922	      7.31706291	      4.54926392	     49.96193752	    -15.61925391	     -5.04444717	     93.75220848	     44.70730709	      0.00000000	      0.00000000	    -20.03271706	     -6.06541836	     10.10260549	     23.28401048	     43.73060235	      0.00000000	      0.00000000
     35.48950000	     -6.59481041	     -7.38961543	      1.86110192	      1.06226767	      0.90944485	      0.48731116	     -4.62710714	      6.83505376	    -16.74370133	      5.89354667	      5.89354667	     18.16090517	     11.73566592	     -1.73822174	     35.82580068	    -10.65400404	     -3.61506057	     23.60432634	     23.60432634	      1.84692063	    -15.26636990	      9.91822136	     -7.53705397	      7.14028841	      4.34849155	     50.25479170	    -15.12563204	     -4.98550457	     94.77310661	     44.68263648	      0.00000000	      0.00000000	    -20.71920988	     -5.80626773	     10.47168558	     22.90896886	     43.67360698	      0.00000000	      0.00000000
     35.50100000	     -6.67626671	     -7.17174182	      1.63130026	      1.06315317	      0.90888371	      0.48497466	     -4.82718332	      6.25293111	    -16.54114386	      6.74740237	      6.74740237	     18.65258485	     11.58684053	     -1.57242503	     35.44878761	    -10.29749426	     -3.46616411	     24.56272700	     24.56272700	      1.77231865	    -16.01580023	      9.71799787	     -7.33167991	      6.89795111	      4.22347902	     50.21023091	    -14.79615603	     -5.00425970	     95.80864213	     44.66159266	      0.00000000	      0.00000000	    -21.15327769	     -5.62126782	     10.89440235	     22.54241318	     43.61816092	      0.00000000	      0.00000000
     35.51250000	     -6.70378987	     -6.96640434	      1.44523349	      1.06405068	      0.90875284	      0.48249829	     -5.05508340	      5.67013356	    -16.37840779	      7.63113857	      7.63113857	     18.99911762	     11.44258602	     -1.47122214	     35.04162832	     -9.97490634	     -3.33504316	     25.46228353	     25.46228353	      1.99427058	    -16.51437500	      9.51246146	     -7.19552440	      6.68425217	      4.09682069	     49.95641469	    -14.54764429	     -5.04636921	     96.72068463	     44.64237118	      0.00000000	      0.00000000	    -21.33652189	     -5.48192545	     11.22178849	     22.23582113	     43.57988663	      0.00000000	      0.00000000
     35.52400000	     -6.68587696	     -6.72814918	      1.29294065	      1.06500508	      0.90909534	      0.47991725	     -5.35435010	      5.05535491	    -16.20762853	      8.44779053	      8.44779053	     19.14047514	     11.30679914	     -1.47180932	     34.56856530	     -9.63800489	     -3.25581782	     26.24496099	     26.24496099	      2.43589148	    -16.87519334	      9.29895732	     -7.09717901	      6.41476160	      3.92700285	     49.41024298	    -14.37195695	     -5.05128358	     97.30848330	     44.62704009	      0.00000000	      0.00000000	    -21.37888117	     -5.39948537	     11.40370122	     22.03354607	     43.56046563	      0.00000000	      0.00000000
     35.53550000	     -6.81001117	     -6.45412292	      1.14605530	      1.06570108	      0.90968576	      0.47708844	     -5.20622629	      4.28293757	    -16.17187770	      9.78896041	      9.78896041	     19.38288080	     11.16880917	     -1.33472614	     34.22321446	     -9.24482632	     -3.20731890	     26.88743709	     26.88743709	      3.26771344	    -17.08269464	      9.82648245	     -6.93043566	      6.15597782	      4.41151566	     48.02594693	    -14.87155483	     -5.73728241	     99.66392447	     44.60905830	      0.00000000	      0.00000000	    -20.63838688	     -5.46509970	     12.47829741	     21.21303015	     43.48090877	      0.00000000	      0.00000000
     35.54700000	     -6.84540420	     -6.20399749	      1.03331795	      1.06640582	      0.91069588	      0.47417463	     -5.10779517	      3.53857155	    -16.01983185	     11.16631995	     11.16631995	     19.30380883	     10.81947347	     -1.65545945	     33.72087018	     -8.90099587	     -3.27962344	     27.34054190	     27.34054190	      3.97973158	    -17.19921879	      9.64825175	     -6.81702090	      5.93431326	      4.08109737	     47.12584575	    -14.61146741	     -5.65602806	    100.13055119	     44.59653723	      0.00000000	      0.00000000	    -20.34436116	     -5.38418958	     12.69806600	     21.17369262	     43.46752170	      0.00000000	      0.00000000
     35.55850000	     -6.89583158	     -5.95588261	      0.93597605	      1.06699271	      0.91199394	      0.47111238	     -4.80200800	      2.73365619	    -15.87972195	     12.86158022	     12.86158022	     19.06635020	     10.37664847	     -2.25982390	     33.16607286	     -8.54495441	     -3.39561673	     27.61600054	     27.61600054	      4.76042786	    -17.26796661	      9.60069142	     -6.70938527	      5.73531076	      3.88810298	     45.86781922	    -14.58055806	     -5.66099065	    100.76375294	     44.58100708	      0.00000000	      0.00000000	    -19.80510190	     -5.37328826	     12.89019835	     21.20752861	     43.46638206	      0.00000000	      0.00000000
     35.57000000	     -6.93365415	     -5.72344144	      0.85595280	      1.06749597	      0.91354224	      0.46793183	     -4.32880290	      1.89936161	    -15.68499952	     14.85174702	     14.85174702	     18.61808604	      9.79565015	     -3.16511869	     32.51907145	     -8.18504703	     -3.55211194	     27.71693887	     27.71693887	      5.55359825	    -17.26911252	      9.62703790	     -6.63109388	      5.57501436	      3.78006561	     44.33923035	    -14.68565821	     -5.71948991	    101.40746973	     44.56593468	      0.00000000	      0.00000000	    -19.08342008	     -5.41193191	     13.04377460	     21.32840218	     43.47605416	      0.00000000	      0.00000000
     35.58150000	     -6.93064007	     -5.50773202	      0.75577750	      1.06794306	      0.91530062	      0.46476433	     -3.70682224	      1.03874049	    -15.42964868	     17.15041992	     17.15041992	     17.96544613	      9.04292570	     -4.26828488	     31.74951015	     -7.85662829	     -3.79686349	     27.66652427	     27.66652427	      6.29797504	    -17.24057358	      9.64753881	     -6.59585348	      5.43641606	      3.65791418	     42.61715245	    -14.81621155	     -5.76689191	    101.86885451	     44.55408207	      0.00000000	      0.00000000	    -18.26459469	     -5.50420411	     13.13542491	     21.54927193	     43.49496630	      0.00000000	      0.00000000
     35.59300000	     -6.98811204	     -5.36743142	      0.70401476	      1.06816841	      0.91696885	      0.46153322	     -2.95256319	      0.31146048	    -15.00287408	     19.28239832	     19.28239832	     15.28843447	      7.36111908	    -10.56712647	     31.06924015	     -7.54050780	     -3.90831771	     27.61674207	     27.61674207	      7.33824002	    -17.13533023	     10.57637207	     -6.56808158	      5.42392896	      4.33043274	     40.03384034	    -15.58841122	     -6.90035259	    103.69015850	     44.59417562	      0.00000000	      0.00000000	    -16.79119953	     -5.79261671	     14.14740459	     21.50529970	     43.52671187	      0.00000000	      0.00000000
     35.60450000	     -6.91409570	     -5.17612640	      0.62329245	      1.06838515	      0.91886701	      0.45829195	     -1.88856126	     -0.62106540	    -14.62301768	     22.44690766	     22.44690766	     14.36450648	      6.19676999	    -11.39752341	     30.08064914	     -7.21528924	     -4.27346214	     27.27660231	     27.27660231	      7.88694397	    -16.97030659	     10.38768046	     -6.63071690	      5.34518195	      4.00193771	     38.20325940	    -15.55932713	     -6.67417326	    103.33728774	     44.59643866	      0.00000000	      0.00000000	    -15.87378185	     -5.89920752	     14.13936537	     22.03068707	     43.55953285	      0.00000000	      0.00000000
     35.61600000	     -6.92088301	     -5.04699749	      0.55256048	      1.06830513	      0.92050078	      0.45512804	     -0.44613209	     -1.48671211	    -14.08543156	     26.02322996	     26.02322996	     13.00698975	      4.56571023	    -12.58817399	     29.19032389	     -6.92069918	     -4.52564799	     26.90522766	     26.90522766	      8.36539104	    -16.84491756	     10.20251595	     -6.63691859	      5.35364423	      3.79085575	     36.22339870	    -15.68418739	     -6.60894797	    102.95151834	     44.60494630	      0.00000000	      0.00000000	    -14.83365763	     -6.05544765	     14.05895827	     22.74973965	     43.60784179	      0.00000000	      0.00000000
     35.62750000	     -6.87941739	     -5.07508241	      0.48876193	      1.06812161	      0.92198274	      0.45221130	      1.03637463	     -1.97117637	    -13.01686040	     29.46573587	     29.46573587	     10.28469803	      1.33252611	    -16.29035415	     28.30017363	     -6.79882792	     -4.72581841	     26.58517058	     26.58517058	      8.68896698	    -16.76552702	      9.92338571	     -6.68142487	      5.53975935	      4.05528626	     33.78348906	    -16.13174500	     -7.27267323	    102.95880137	     44.64137977	      0.00000000	      0.00000000	    -13.88391149	     -6.41290473	     13.75031319	     24.34103759	     43.74226676	      0.00000000	      0.00000000
     35.63900000	     -6.73157124	     -4.87102301	      0.44311260	      1.06775030	      0.92337264	      0.44921222	      2.69190423	     -2.97110580	    -12.63527327	     33.55019951	     33.55019951	      8.41873503	     -0.14412096	    -16.99307564	     27.28336764	     -6.43724037	     -5.03550413	     26.27462611	     26.27462611	      9.20599017	    -16.52938198	      9.67839373	     -6.94570143	      5.43013257	      3.63015678	     31.69298904	    -15.91152328	     -7.06834666	    102.06811960	     44.65823777	      0.00000000	      0.00000000	    -12.49986023	     -6.63451932	     13.64017554	     25.00972120	     43.79598526	      0.00000000	      0.00000000
